# Blender v2.76 (sub 0) OBJ File: 'WaveStatic.blend'
# www.blender.org
mtllib WaveStaticLineSegment.mtl
o BezierCurve
v 2.000000 0.000000 0.000000
v 1.897641 0.000000 0.000000
v 1.753659 0.000000 0.000000
v 1.577033 0.000000 0.000000
v 1.376742 0.000000 0.000000
v 1.161766 0.000000 0.000000
v 0.941084 0.000000 0.000000
v 0.723675 0.000000 0.000000
v 0.518518 0.000000 0.000000
v 0.334593 0.000000 0.000000
v 0.180879 0.000000 0.000000
v 0.066355 0.000000 0.000000
v 0.000000 0.000000 0.000000
l 1 2
l 2 3
l 3 4
l 4 5
l 5 6
l 6 7
l 7 8
l 8 9
l 9 10
l 10 11
l 11 12
l 12 13
o Cube
v 2.108333 -0.000000 0.100000
v 1.900000 0.000000 0.100000
v 2.108333 -0.095106 0.030902
v 1.900000 -0.095106 0.030902
v 2.108333 -0.058779 -0.080902
v 1.900000 -0.058779 -0.080902
v 2.108333 0.058779 -0.080902
v 1.900000 0.058779 -0.080902
v 2.108333 0.095106 0.030902
v 1.900000 0.095106 0.030902
v 1.900000 0.000000 0.100000
v 1.700000 -0.000000 0.100000
v 1.900000 -0.095106 0.030902
v 1.700000 -0.095106 0.030902
v 1.900000 -0.058779 -0.080902
v 1.700000 -0.058779 -0.080902
v 1.900000 0.058779 -0.080902
v 1.700000 0.058779 -0.080902
v 1.900000 0.095106 0.030902
v 1.700000 0.095106 0.030902
v 1.700000 -0.000000 0.100000
v 1.500000 -0.000000 0.100000
v 1.700000 -0.095106 0.030902
v 1.500000 -0.095106 0.030902
v 1.700000 -0.058779 -0.080902
v 1.500000 -0.058779 -0.080902
v 1.700000 0.058779 -0.080902
v 1.500000 0.058779 -0.080902
v 1.700000 0.095106 0.030902
v 1.500000 0.095106 0.030902
v 1.500000 -0.000000 0.100000
v 1.300000 -0.000000 0.100000
v 1.500000 -0.095106 0.030902
v 1.300000 -0.095106 0.030902
v 1.500000 -0.058779 -0.080902
v 1.300000 -0.058779 -0.080902
v 1.500000 0.058779 -0.080902
v 1.300000 0.058779 -0.080902
v 1.500000 0.095106 0.030902
v 1.300000 0.095106 0.030902
v 1.300000 -0.000000 0.100000
v 1.100000 -0.000000 0.100000
v 1.300000 -0.095106 0.030902
v 1.100000 -0.095106 0.030902
v 1.300000 -0.058779 -0.080902
v 1.100000 -0.058779 -0.080902
v 1.300000 0.058779 -0.080902
v 1.100000 0.058779 -0.080902
v 1.300000 0.095106 0.030902
v 1.100000 0.095106 0.030902
v 1.100000 -0.000000 0.100000
v 0.900000 -0.000000 0.100000
v 1.100000 -0.095106 0.030902
v 0.900000 -0.095106 0.030902
v 1.100000 -0.058779 -0.080902
v 0.900000 -0.058779 -0.080902
v 1.100000 0.058779 -0.080902
v 0.900000 0.058779 -0.080902
v 1.100000 0.095106 0.030902
v 0.900000 0.095106 0.030902
v 0.900000 -0.000000 0.100000
v 0.700000 -0.000000 0.100000
v 0.900000 -0.095106 0.030902
v 0.700000 -0.095106 0.030902
v 0.900000 -0.058779 -0.080902
v 0.700000 -0.058779 -0.080902
v 0.900000 0.058779 -0.080902
v 0.700000 0.058779 -0.080902
v 0.900000 0.095106 0.030902
v 0.700000 0.095106 0.030902
v 0.700000 -0.000000 0.100000
v 0.500000 -0.000000 0.100000
v 0.700000 -0.095106 0.030902
v 0.500000 -0.095106 0.030902
v 0.700000 -0.058779 -0.080902
v 0.500000 -0.058779 -0.080902
v 0.700000 0.058779 -0.080902
v 0.500000 0.058779 -0.080902
v 0.700000 0.095106 0.030902
v 0.500000 0.095106 0.030902
v 0.500000 -0.000000 0.100000
v 0.300000 -0.000000 0.100000
v 0.500000 -0.095106 0.030902
v 0.300000 -0.095106 0.030902
v 0.500000 -0.058779 -0.080902
v 0.300000 -0.058779 -0.080902
v 0.500000 0.058779 -0.080902
v 0.300000 0.058779 -0.080902
v 0.500000 0.095106 0.030902
v 0.300000 0.095106 0.030902
v 0.300000 -0.000000 0.100000
v 0.100000 -0.000000 0.100000
v 0.300000 -0.095106 0.030902
v 0.100000 -0.095106 0.030902
v 0.300000 -0.058779 -0.080902
v 0.100000 -0.058779 -0.080902
v 0.300000 0.058779 -0.080902
v 0.100000 0.058779 -0.080902
v 0.300000 0.095106 0.030902
v 0.100000 0.095106 0.030902
v 0.100000 -0.000000 0.100000
v -0.108333 0.000000 0.100000
v 0.100000 -0.095106 0.030902
v -0.108333 -0.095106 0.030902
v 0.100000 -0.058779 -0.080902
v -0.108334 -0.058779 -0.080902
v 0.100000 0.058779 -0.080902
v -0.108334 0.058779 -0.080902
v 0.100000 0.095106 0.030902
v -0.108333 0.095106 0.030902
vn 0.000000 -0.587800 0.809000
vn -0.000000 -0.951100 -0.309000
vn -0.000000 0.000000 -1.000000
vn 0.000000 0.587800 0.809000
vn -0.000000 0.951100 -0.309000
usemtl Material
s off
f 14//1 15//1 17//1 16//1
f 16//2 17//2 19//2 18//2
f 18//3 19//3 21//3 20//3
f 22//4 23//4 15//4 14//4
f 20//5 21//5 23//5 22//5
f 24//1 25//1 27//1 26//1
f 26//2 27//2 29//2 28//2
f 28//3 29//3 31//3 30//3
f 32//4 33//4 25//4 24//4
f 30//5 31//5 33//5 32//5
f 34//1 35//1 37//1 36//1
f 36//2 37//2 39//2 38//2
f 38//3 39//3 41//3 40//3
f 42//4 43//4 35//4 34//4
f 40//5 41//5 43//5 42//5
f 44//1 45//1 47//1 46//1
f 46//2 47//2 49//2 48//2
f 48//3 49//3 51//3 50//3
f 52//4 53//4 45//4 44//4
f 50//5 51//5 53//5 52//5
f 54//1 55//1 57//1 56//1
f 56//2 57//2 59//2 58//2
f 58//3 59//3 61//3 60//3
f 62//4 63//4 55//4 54//4
f 60//5 61//5 63//5 62//5
f 64//1 65//1 67//1 66//1
f 66//2 67//2 69//2 68//2
f 68//3 69//3 71//3 70//3
f 72//4 73//4 65//4 64//4
f 70//5 71//5 73//5 72//5
f 74//1 75//1 77//1 76//1
f 76//2 77//2 79//2 78//2
f 78//3 79//3 81//3 80//3
f 82//4 83//4 75//4 74//4
f 80//5 81//5 83//5 82//5
f 84//1 85//1 87//1 86//1
f 86//2 87//2 89//2 88//2
f 88//3 89//3 91//3 90//3
f 92//4 93//4 85//4 84//4
f 90//5 91//5 93//5 92//5
f 94//1 95//1 97//1 96//1
f 96//2 97//2 99//2 98//2
f 98//3 99//3 101//3 100//3
f 102//4 103//4 95//4 94//4
f 100//5 101//5 103//5 102//5
f 104//1 105//1 107//1 106//1
f 106//2 107//2 109//2 108//2
f 108//3 109//3 111//3 110//3
f 112//4 113//4 105//4 104//4
f 110//5 111//5 113//5 112//5
f 114//1 115//1 117//1 116//1
f 116//2 117//2 119//2 118//2
f 118//3 119//3 121//3 120//3
f 122//4 123//4 115//4 114//4
f 120//5 121//5 123//5 122//5
