# Blender v2.76 (sub 0) OBJ File: 'WaveStatic.blend'
# www.blender.org
mtllib WaveStaticSingleBump.mtl
o BezierCurve
v 1.490636 0.000000 0.000000
v 1.448584 0.019676 0.000000
v 1.401300 0.074074 0.000000
v 1.349259 0.156250 0.000000
v 1.292936 0.259259 0.000000
v 1.232808 0.376157 0.000000
v 1.169351 0.500000 0.000000
v 1.103039 0.623843 0.000000
v 1.034349 0.740741 0.000000
v 0.963756 0.843750 0.000000
v 0.891736 0.925926 0.000000
v 0.818765 0.980324 0.000000
v 0.745318 1.000000 0.000000
v 0.671871 0.980324 0.000000
v 0.598900 0.925926 0.000000
v 0.526880 0.843750 0.000000
v 0.456287 0.740741 0.000000
v 0.387597 0.623843 0.000000
v 0.321286 0.500000 0.000000
v 0.257828 0.376157 0.000000
v 0.197700 0.259259 0.000000
v 0.141378 0.156250 0.000000
v 0.089336 0.074074 0.000000
v 0.042052 0.019676 0.000000
v 0.000000 0.000000 0.000000
l 1 2
l 2 3
l 3 4
l 4 5
l 5 6
l 6 7
l 7 8
l 8 9
l 9 10
l 10 11
l 11 12
l 12 13
l 13 14
l 14 15
l 15 16
l 16 17
l 17 18
l 18 19
l 19 20
l 20 21
l 21 22
l 22 23
l 23 24
l 24 25
o Cube
v 1.570286 -0.063626 0.100000
v 1.414173 0.061081 0.100000
v 1.570286 -0.158731 0.030902
v 1.344091 -0.003213 0.030902
v 1.570286 -0.122404 -0.080901
v 1.370860 0.021345 -0.080901
v 1.570286 -0.004847 -0.080901
v 1.457485 0.100816 -0.080901
v 1.570286 0.031480 0.030902
v 1.484254 0.125374 0.030902
v 1.414173 0.061081 0.100001
v 1.308875 0.230166 0.100000
v 1.344091 -0.003212 0.030902
v 1.225442 0.184514 0.030902
v 1.370860 0.021345 -0.080901
v 1.257311 0.201952 -0.080901
v 1.457486 0.100816 -0.080901
v 1.360439 0.258381 -0.080901
v 1.484254 0.125374 0.030902
v 1.392307 0.275818 0.030902
v 1.308875 0.230166 0.100000
v 1.216695 0.407645 0.100000
v 1.225442 0.184514 0.030902
v 1.132263 0.363869 0.030902
v 1.257311 0.201952 -0.080901
v 1.164513 0.380590 -0.080901
v 1.360439 0.258381 -0.080901
v 1.268877 0.434700 -0.080901
v 1.392307 0.275818 0.030902
v 1.301127 0.451421 0.030902
v 1.216695 0.407645 0.100000
v 1.123874 0.584790 0.100000
v 1.132263 0.363869 0.030902
v 1.040533 0.538971 0.030902
v 1.164513 0.380590 -0.080901
v 1.072367 0.556472 -0.080901
v 1.268877 0.434700 -0.080901
v 1.175382 0.613107 -0.080901
v 1.301127 0.451421 0.030902
v 1.207216 0.630608 0.030902
v 1.123874 0.584790 0.100000
v 1.022094 0.756816 0.100000
v 1.040533 0.538971 0.030902
v 0.942877 0.704188 0.030902
v 1.072367 0.556472 -0.080901
v 0.973135 0.724290 -0.080901
v 1.175382 0.613107 -0.080901
v 1.071053 0.789342 -0.080901
v 1.207216 0.630608 0.030902
v 1.101312 0.809444 0.030902
v 1.022094 0.756816 0.100000
v 0.898344 0.912571 0.100000
v 0.942877 0.704188 0.030902
v 0.834551 0.842035 0.030902
v 0.973135 0.724290 -0.080901
v 0.858918 0.868977 -0.080901
v 1.071053 0.789342 -0.080901
v 0.937771 0.956166 -0.080901
v 1.101312 0.809444 0.030902
v 0.962138 0.983108 0.030902
v 0.898344 0.912571 0.100000
v 0.727906 0.993247 0.100000
v 0.834551 0.842035 0.030902
v 0.737189 0.898596 0.030902
v 0.858918 0.868977 -0.080901
v 0.733643 0.934749 -0.080901
v 0.937771 0.956166 -0.080901
v 0.722169 1.051745 -0.080901
v 0.962138 0.983108 0.030902
v 0.718623 1.087899 0.030902
v 0.727906 0.993247 0.100000
v 0.564902 0.886731 0.100000
v 0.737189 0.898596 0.030902
v 0.634596 0.822017 0.030902
v 0.733643 0.934749 -0.080901
v 0.607975 0.846735 -0.080901
v 0.722169 1.051745 -0.080901
v 0.521830 0.926727 -0.080902
v 0.718623 1.087899 0.030902
v 0.495209 0.951445 0.030902
v 0.564902 0.886731 0.100000
v 0.447651 0.725206 0.100000
v 0.634596 0.822017 0.030902
v 0.528178 0.674604 0.030902
v 0.607975 0.846735 -0.080901
v 0.497420 0.693932 -0.080902
v 0.521830 0.926727 -0.080902
v 0.397883 0.756479 -0.080902
v 0.495209 0.951445 0.030902
v 0.367124 0.775807 0.030902
v 0.447651 0.725206 0.100000
v 0.348831 0.551393 0.100000
v 0.528178 0.674604 0.030902
v 0.432536 0.506243 0.030902
v 0.497420 0.693932 -0.080902
v 0.400564 0.523488 -0.080902
v 0.397883 0.756479 -0.080902
v 0.297099 0.579297 -0.080902
v 0.367124 0.775807 0.030902
v 0.265126 0.596543 0.030902
v 0.348831 0.551393 0.100000
v 0.256637 0.373919 0.100000
v 0.432536 0.506243 0.030902
v 0.341073 0.330151 0.030902
v 0.400564 0.523488 -0.080902
v 0.308821 0.346868 -0.080902
v 0.297099 0.579297 -0.080902
v 0.204452 0.400969 -0.080902
v 0.265126 0.596543 0.030902
v 0.172201 0.417686 0.030902
v 0.256637 0.373918 0.100000
v 0.163532 0.196933 0.100000
v 0.341073 0.330150 0.030902
v 0.246269 0.150033 0.030902
v 0.308821 0.346868 -0.080902
v 0.214666 0.167947 -0.080902
v 0.204452 0.400968 -0.080902
v 0.112397 0.225919 -0.080902
v 0.172201 0.417686 0.030902
v 0.080794 0.243833 0.030902
v 0.163532 0.196933 0.100000
v 0.047479 0.037927 0.100000
v 0.246269 0.150032 0.030902
v 0.094274 -0.044870 0.030902
v 0.214666 0.167947 -0.080902
v 0.076400 -0.013244 -0.080902
v 0.112397 0.225919 -0.080902
v 0.018559 0.089099 -0.080902
v 0.080794 0.243833 0.030902
v 0.000685 0.120724 0.030902
vn -0.372900 -0.508800 0.775900
vn -0.552200 -0.785300 -0.279900
vn -0.000000 0.000000 -1.000000
vn 0.429800 0.476100 0.767200
vn 0.682700 0.680200 -0.266900
vn -0.500800 -0.314300 0.806400
vn -0.805200 -0.507600 -0.306500
vn 0.503300 0.310700 0.806300
vn 0.811400 0.497900 -0.306300
vn -0.521600 -0.271000 0.809000
vn -0.844000 -0.438400 -0.309000
vn 0.521700 0.270900 0.809000
vn 0.844100 0.438300 -0.309000
vn -0.520700 -0.272800 0.809000
vn -0.842500 -0.441400 -0.309000
vn 0.520700 0.272800 0.809000
vn 0.842400 0.441500 -0.309000
vn -0.506200 -0.299400 0.808800
vn -0.818800 -0.484000 -0.308800
vn 0.506100 0.299600 0.808800
vn 0.818400 0.484600 -0.308800
vn -0.463700 -0.366600 0.806600
vn -0.747700 -0.589000 -0.306600
vn 0.461900 0.368700 0.806600
vn 0.743200 0.594700 -0.306700
vn -0.285800 -0.557700 0.779300
vn -0.462200 -0.841200 -0.280400
vn 0.255200 0.569500 0.781400
vn 0.383600 0.878900 -0.283700
vn 0.350500 -0.508400 0.786600
vn 0.560300 -0.777000 -0.287100
vn -0.327600 0.521100 0.788100
vn -0.502600 0.814600 -0.289600
vn 0.477600 -0.345800 0.807700
vn 0.771200 -0.557300 -0.307700
vn -0.476700 0.346900 0.807700
vn -0.769000 0.560300 -0.307700
vn 0.511200 -0.290500 0.808800
vn 0.827000 -0.469800 -0.308800
vn -0.511100 0.290700 0.808800
vn -0.826700 0.470300 -0.308800
vn 0.521600 -0.271000 0.809000
vn 0.844000 -0.438400 -0.309000
vn -0.521600 0.271000 0.809000
vn -0.844000 0.438500 -0.309000
vn 0.520300 -0.273800 0.808900
vn 0.841600 -0.442900 -0.308900
vn -0.520300 0.273600 0.808900
vn -0.841800 0.442600 -0.308900
vn 0.482800 -0.365700 0.795700
vn 0.756000 -0.583500 -0.296600
vn -0.499300 0.347200 0.793800
vn -0.794500 0.531700 -0.293600
usemtl Material
s off
f 26//1 27//1 29//1 28//1
f 28//2 29//2 31//2 30//2
f 30//3 31//3 33//3 32//3
f 34//4 35//4 27//4 26//4
f 32//5 33//5 35//5 34//5
f 36//6 37//6 39//6 38//6
f 38//7 39//7 41//7 40//7
f 40//3 41//3 43//3 42//3
f 44//8 45//8 37//8 36//8
f 42//9 43//9 45//9 44//9
f 46//10 47//10 49//10 48//10
f 48//11 49//11 51//11 50//11
f 50//3 51//3 53//3 52//3
f 54//12 55//12 47//12 46//12
f 52//13 53//13 55//13 54//13
f 56//14 57//14 59//14 58//14
f 58//15 59//15 61//15 60//15
f 60//3 61//3 63//3 62//3
f 64//16 65//16 57//16 56//16
f 62//17 63//17 65//17 64//17
f 66//18 67//18 69//18 68//18
f 68//19 69//19 71//19 70//19
f 70//3 71//3 73//3 72//3
f 74//20 75//20 67//20 66//20
f 72//21 73//21 75//21 74//21
f 76//22 77//22 79//22 78//22
f 78//23 79//23 81//23 80//23
f 80//3 81//3 83//3 82//3
f 84//24 85//24 77//24 76//24
f 82//25 83//25 85//25 84//25
f 86//26 87//26 89//26 88//26
f 88//27 89//27 91//27 90//27
f 90//3 91//3 93//3 92//3
f 94//28 95//28 87//28 86//28
f 92//29 93//29 95//29 94//29
f 96//30 97//30 99//30 98//30
f 98//31 99//31 101//31 100//31
f 100//3 101//3 103//3 102//3
f 104//32 105//32 97//32 96//32
f 102//33 103//33 105//33 104//33
f 106//34 107//34 109//34 108//34
f 108//35 109//35 111//35 110//35
f 110//3 111//3 113//3 112//3
f 114//36 115//36 107//36 106//36
f 112//37 113//37 115//37 114//37
f 116//38 117//38 119//38 118//38
f 118//39 119//39 121//39 120//39
f 120//3 121//3 123//3 122//3
f 124//40 125//40 117//40 116//40
f 122//41 123//41 125//41 124//41
f 126//42 127//42 129//42 128//42
f 128//43 129//43 131//43 130//43
f 130//3 131//3 133//3 132//3
f 134//44 135//44 127//44 126//44
f 132//45 133//45 135//45 134//45
f 136//46 137//46 139//46 138//46
f 138//47 139//47 141//47 140//47
f 140//3 141//3 143//3 142//3
f 144//48 145//48 137//48 136//48
f 142//49 143//49 145//49 144//49
f 146//50 147//50 149//50 148//50
f 148//51 149//51 151//51 150//51
f 150//3 151//3 153//3 152//3
f 154//52 155//52 147//52 146//52
f 152//53 153//53 155//53 154//53
